<?xml version="1.0" encoding="UTF-8"?>
<svg version="1.1" xmlns="http://www.w3.org/2000/svg" width="500" height="500">
<path d="M0 0 C165 0 330 0 500 0 C500 165 500 330 500 500 C335 500 170 500 0 500 C0 335 0 170 0 0 Z " fill="#FEFEFE" transform="translate(0,0)"/>
<path d="M0 0 C1.18102547 -0.02913231 1.18102547 -0.02913231 2.38591003 -0.05885315 C9.68308849 -0.22816226 16.98174295 -0.32451207 24.28043747 -0.39992237 C29.17780434 -0.45115189 34.07232436 -0.52523615 38.96826172 -0.65625 C43.71065559 -0.78264652 48.4504906 -0.8484241 53.19446564 -0.87351036 C54.99187215 -0.89298773 56.78919144 -0.93310448 58.58562469 -0.99537086 C68.60878925 -1.32634549 75.56431551 -0.82638359 83.24023438 6.09033203 C84.83905216 7.63598704 86.39171522 9.21030351 87.92169952 10.82398415 C90.12746484 13.06872051 92.53613667 14.97413601 95.00097656 16.92895508 C103.0520936 23.44129206 104.64998477 35.39691799 107.12597656 44.92895508 C107.44179687 46.12391602 107.75761719 47.31887695 108.08300781 48.55004883 C108.85297333 51.46658489 109.61716186 54.38450187 110.37597656 57.30395508 C112.7234732 51.30445801 114.60278251 45.27517419 116.33691406 39.07348633 C116.89601013 37.11687741 117.45593057 35.1605039 118.01660156 33.2043457 C118.88880974 30.15186319 119.75603147 27.09834166 120.609375 24.04052734 C121.4410851 21.06785443 122.29342703 18.10174591 123.14941406 15.13598633 C123.52312637 13.76867119 123.52312637 13.76867119 123.90438843 12.37373352 C124.15459747 11.51901962 124.40480652 10.66430573 124.66259766 9.78369141 C124.87338959 9.03726883 125.08418152 8.29084625 125.30136108 7.52180481 C126.86062 4.30372166 128.55811819 2.51593968 131.37597656 0.30395508 C134.21727104 -0.23199798 136.48103652 -0.46049706 139.32470703 -0.4699707 C140.11088913 -0.49158264 140.89707123 -0.51319458 141.70707703 -0.53546143 C144.30273872 -0.59816063 146.89683438 -0.6226169 149.49316406 -0.64135742 C151.31096769 -0.66506923 153.12876756 -0.68907088 154.94656372 -0.71334839 C158.76135632 -0.75682143 162.57560547 -0.77807189 166.390625 -0.78735352 C171.24199632 -0.80352307 176.08774526 -0.90257911 180.93749809 -1.0228138 C184.69731789 -1.1016155 188.45583004 -1.12062287 192.21640396 -1.12414169 C194.00173657 -1.13546552 195.787082 -1.16795043 197.57159042 -1.22336197 C207.98788857 -1.52143719 214.8127549 -0.58793344 222.72021484 6.59350586 C224.45038114 8.27084844 226.13730052 9.97701467 227.80247879 11.71876907 C230.14521745 14.07891003 232.69088046 16.07375625 235.31347656 18.11645508 C237.71582031 20.01098633 237.71582031 20.01098633 239.37597656 22.30395508 C239.84567697 28.39617352 238.85781176 32.73987065 236.54394531 38.33129883 C236.24089478 39.09567764 235.93784424 39.86005646 235.62561035 40.64759827 C234.61711871 43.18395347 233.5900542 45.71237244 232.56347656 48.24145508 C231.83835783 50.05788749 231.11484394 51.87496126 230.39282227 53.69262695 C228.85409793 57.56478276 227.30984464 61.43467032 225.76269531 65.3034668 C222.19081955 74.25848736 218.72087062 83.25301469 215.2456665 92.24588013 C213.65163529 96.3693012 212.05371696 100.4912115 210.45584106 104.61314392 C209.24104384 107.74692456 208.02669557 110.88087879 206.8125 114.01489258 C206.41059448 115.05226563 206.00868896 116.08963867 205.59460449 117.15844727 C205.19245728 118.19646484 204.79031006 119.23448242 204.37597656 120.30395508 C201.14740036 128.63751731 197.91846016 136.97093822 194.68847656 145.30395508 C194.29602753 146.31644318 193.90357849 147.32893127 193.49923706 148.37210083 C187.25896245 164.46922227 180.99573367 180.55729111 174.71313477 196.63793945 C174.40950516 197.41577789 174.10587555 198.19361633 173.79304504 198.99502563 C173.1991335 200.51367868 172.60330361 202.03158311 172.00541687 203.54867554 C170.46940953 207.45457391 168.978724 211.37113223 167.54589844 215.31616211 C167.24230408 216.13665543 166.93870972 216.95714874 166.62591553 217.80250549 C166.04967164 219.36294717 165.48524305 220.92782481 164.93511963 222.49766541 C164.6729364 223.20081375 164.41075317 223.9039621 164.140625 224.62841797 C163.91969177 225.24342667 163.69875854 225.85843536 163.47113037 226.49208069 C161.83733892 229.19510274 160.02394487 230.59370602 157.37597656 232.30395508 C154.30514526 232.84553528 154.30514526 232.84553528 150.83251953 232.90087891 C149.52701141 232.92962601 148.2215033 232.95837311 146.87643433 232.98799133 C145.45702159 232.99743013 144.03759576 233.00504893 142.61816406 233.01098633 C141.14950103 233.02639906 139.68084254 233.04224997 138.21218872 233.05851746 C135.13386647 233.08694894 132.0559857 233.09838529 128.97753906 233.10009766 C125.05938332 233.10526045 121.14474446 233.17007904 117.22750664 233.25038624 C114.1919087 233.30275936 111.157136 233.31365882 108.12112808 233.31360435 C106.67871064 233.32011162 105.23627413 233.34113581 103.79430771 233.37778664 C94.40352065 233.59593471 88.62159997 232.16603985 81.60769653 225.54051208 C80.87122894 224.80244827 80.13476135 224.06438446 79.37597656 223.30395508 C78.11850971 222.25132012 76.85083624 221.21043848 75.56347656 220.19458008 C74.50040583 219.31506113 73.43788026 218.43488271 72.37597656 217.55395508 C71.83070313 217.11180664 71.28542969 216.6696582 70.72363281 216.21411133 C65.13193926 211.5520881 62.81045637 206.24848716 60.25097656 199.56958008 C59.95203491 198.80059387 59.65309326 198.03160767 59.34509277 197.23931885 C58.35106195 194.67918465 57.36356015 192.11658249 56.37597656 189.55395508 C55.66871999 187.72892025 54.9610279 185.90405415 54.25292969 184.0793457 C52.74190106 180.18319791 51.2336291 176.28599894 49.72753906 172.38793945 C47.37552504 166.30080574 45.01713454 160.21615709 42.65722656 154.13208008 C41.86294893 152.08423115 41.06867812 150.03637958 40.27441406 147.98852539 C39.87963867 146.9706897 39.48486328 145.952854 39.078125 144.9041748 C37.86699734 141.78079856 36.65654984 138.6571595 35.44628906 135.53344727 C30.12375193 121.79742604 24.77899852 108.07025581 19.41680908 94.34967041 C15.38620809 84.03529767 11.36893655 73.71587596 7.36816406 63.38989258 C6.72926239 61.7409903 6.72926239 61.7409903 6.07745361 60.05877686 C3.99851954 54.69245989 1.92083654 49.3256621 -0.15527344 43.95825195 C-0.53802429 42.96984314 -0.92077515 41.98143433 -1.31512451 40.96307373 C-2.05849836 39.04282186 -2.80075628 37.12213756 -3.54180908 35.20098877 C-5.15384144 31.03386615 -6.78546977 26.88014072 -8.50976562 22.75805664 C-8.79423553 22.07260773 -9.07870544 21.38715881 -9.37179565 20.68093872 C-10.11332343 18.90579846 -10.86781182 17.13608683 -11.62353516 15.36694336 C-13.07513958 10.92286597 -13.31539505 7.71812428 -11.24902344 3.49145508 C-8.24411993 -0.55360733 -4.66547529 0.09530044 0 0 Z " fill="#5E17EA" transform="translate(136.6240234375,133.696044921875)"/>
<path d="M0 0 C2.78857094 1.2929693 5.02622669 2.70485469 7.34765625 4.71484375 C7.95287109 5.23626953 8.55808594 5.75769531 9.18164062 6.29492188 C9.80232422 6.83697266 10.42300781 7.37902344 11.0625 7.9375 C11.68705078 8.47568359 12.31160156 9.01386719 12.95507812 9.56835938 C14.64832706 11.03391421 16.33776853 12.4993419 18 14 C18.84195923 14.58309937 18.84195923 14.58309937 19.70092773 15.17797852 C21.86285696 18.21020513 21.45285309 21.46472324 21 25 C20.28683028 27.78036976 19.2644675 30.37766877 18.16796875 33.02734375 C17.86491821 33.79172256 17.56186768 34.55610138 17.24963379 35.34364319 C16.24114215 37.8799984 15.21407764 40.40841736 14.1875 42.9375 C13.46238127 44.75393241 12.73886738 46.57100618 12.0168457 48.38867188 C10.47812136 52.26082768 8.93386808 56.13071525 7.38671875 59.99951172 C3.81484299 68.95453228 0.34489406 77.94905961 -3.13031006 86.94192505 C-4.72434127 91.06534613 -6.3222596 95.18725642 -7.9201355 99.30918884 C-9.13493272 102.44296948 -10.34928099 105.57692371 -11.56347656 108.7109375 C-11.96538208 109.74831055 -12.3672876 110.78568359 -12.78137207 111.85449219 C-13.18351929 112.89250977 -13.5856665 113.93052734 -14 115 C-17.22857621 123.33356223 -20.4575164 131.66698315 -23.6875 140 C-24.27617355 141.51873215 -24.27617355 141.51873215 -24.8767395 143.06814575 C-31.11701411 159.16526719 -37.38024289 175.25333603 -43.6628418 191.33398438 C-43.96647141 192.11182281 -44.27010101 192.88966125 -44.58293152 193.69107056 C-45.17684306 195.2097236 -45.77267295 196.72762803 -46.37055969 198.24472046 C-47.90656703 202.15061883 -49.39725256 206.06717715 -50.83007812 210.01220703 C-51.13367249 210.83270035 -51.43726685 211.65319366 -51.75006104 212.49855042 C-52.32630493 214.0589921 -52.89073352 215.62386973 -53.44085693 217.19371033 C-53.70304016 217.89685867 -53.96522339 218.60000702 -54.23535156 219.32446289 C-54.45628479 219.93947159 -54.67721802 220.55448029 -54.90484619 221.18812561 C-56.53863765 223.89114766 -58.35203169 225.28975094 -61 227 C-64.0708313 227.5415802 -64.0708313 227.5415802 -67.54345703 227.59692383 C-68.84896515 227.62567093 -70.15447327 227.65441803 -71.49954224 227.68403625 C-72.91895497 227.69347506 -74.3383808 227.70109385 -75.7578125 227.70703125 C-77.22647553 227.72244398 -78.69513403 227.73829489 -80.16378784 227.75456238 C-83.2421101 227.78299386 -86.31999086 227.79443021 -89.3984375 227.79614258 C-93.31659325 227.80130537 -97.2312321 227.86612396 -101.14846992 227.94643116 C-104.18406787 227.99880428 -107.21884056 228.00970374 -110.25484848 228.00964928 C-111.69726593 228.01615654 -113.13970244 228.03718073 -114.58166885 228.07383156 C-123.90183932 228.29033921 -129.68983643 226.92330723 -136.63400269 220.31742859 C-137.4147818 219.55267715 -138.19556091 218.78792572 -139 218 C-140.70956865 216.66207301 -142.43602253 215.34507565 -144.1875 214.0625 C-146.41796875 212.41015625 -146.41796875 212.41015625 -148 211 C-148 210.34 -148 209.68 -148 209 C-146.75425201 208.99453156 -146.75425201 208.99453156 -145.4833374 208.98895264 C-137.65535552 208.9510807 -129.82779061 208.89423744 -122.000103 208.81609726 C-117.97580081 208.77659333 -113.95171837 208.74441943 -109.92724609 208.72900391 C-106.04310759 208.7138561 -102.15957312 208.67944514 -98.27570343 208.63169098 C-96.79420472 208.61685758 -95.31261978 208.60895786 -93.83104706 208.60811615 C-91.75487429 208.6057504 -89.68037623 208.57870794 -87.60449219 208.54589844 C-86.42312683 208.53701599 -85.24176147 208.52813354 -84.02459717 208.51898193 C-80.34546336 207.88768994 -79.24323471 206.93374892 -77 204 C-75.8570042 201.94655862 -75.8570042 201.94655862 -75.05566406 199.69848633 C-74.72657043 198.84845535 -74.39747681 197.99842438 -74.05841064 197.12263489 C-73.71429138 196.20173569 -73.37017212 195.28083649 -73.015625 194.33203125 C-72.6433075 193.36218796 -72.27098999 192.39234467 -71.88739014 191.39311218 C-70.66515715 188.20321302 -69.45775359 185.00790613 -68.25 181.8125 C-67.39569582 179.57637765 -66.54021324 177.34070517 -65.68359375 175.10546875 C-63.94320406 170.56224788 -62.20733931 166.01733875 -60.47460938 161.47119141 C-57.34705119 153.27756199 -54.15718168 145.10874366 -50.95715332 136.94320679 C-49.33273443 132.7967538 -47.71303894 128.64845856 -46.09375 124.5 C-45.76634827 123.66127853 -45.43894653 122.82255707 -45.10162354 121.9584198 C-40.88329977 111.14585178 -36.6928712 100.32245647 -32.5 89.5 C-25.49794407 71.42670935 -18.47350189 53.36233412 -11.41625977 35.31051636 C-10.82299427 33.79110779 -10.23100229 32.27120126 -9.64038086 30.75076294 C-8.12017888 26.84106956 -6.57539009 22.94355105 -4.99414062 19.05810547 C-4.66798767 18.24663559 -4.34183472 17.43516571 -4.00579834 16.59910583 C-3.38546136 15.05670314 -2.75726504 13.51742822 -2.11968994 11.98207092 C-0.45725334 7.82023423 0.34962962 4.56535594 0 0 Z " fill="#020104" transform="translate(355,139)"/>
<path d="M0 0 C1.8254572 1.28855803 3.634949 2.60224709 5.390625 3.984375 C8.02762872 6.07861996 8.02762872 6.07861996 11.109375 8.015625 C20.1549951 14.46262182 23.24815132 22.67432712 26.25 33.0625 C26.43867645 33.71234863 26.62735291 34.36219727 26.82174683 35.03173828 C30.38629041 47.58670155 32.150287 57.56573827 28.1875 70.125 C27.91357422 71.06859375 27.63964844 72.0121875 27.35742188 72.984375 C25.85101645 77.99850146 25.85101645 77.99850146 25 80 C24.01 80.495 24.01 80.495 23 81 C20.44147866 72.21153702 17.88542296 63.42236165 15.33240795 54.63229752 C14.14653559 50.54960423 12.95985371 46.46715008 11.77124023 42.38525391 C10.62160627 38.43710391 9.47420529 34.48831097 8.32827187 30.53908539 C7.89333906 29.04158754 7.45763719 27.54431281 7.02110863 26.04727936 C4.50212449 17.40655223 2.09850757 8.75474481 0 0 Z " fill="#020104" transform="translate(216,138)"/>
<path d="M0 0 C5.49387255 0.08324049 5.49387255 0.08324049 8.125 2.15625 C10.56592052 8.33991532 6.20614762 15.84522054 3.94921875 21.66015625 C3.53839554 22.7274144 3.12757233 23.79467255 2.70429993 24.89427185 C1.83552056 27.14541771 0.96372294 29.39540076 0.08911133 31.64428711 C-1.24506752 35.08104427 -2.56343432 38.52358834 -3.88085938 41.96679688 C-4.72821029 44.15662031 -5.57648674 46.34608588 -6.42578125 48.53515625 C-7.01351067 50.0759359 -7.01351067 50.0759359 -7.6131134 51.64784241 C-11.30976434 61.07693735 -11.30976434 61.07693735 -14.9375 64.53125 C-18.5 65.09375 -18.5 65.09375 -21.9375 64.53125 C-23.9375 62.90625 -23.9375 62.90625 -24.9375 60.53125 C-24.45451336 55.46129973 -22.77440582 51.01569012 -20.953125 46.30859375 C-20.65565369 45.52666153 -20.35818237 44.74472931 -20.05169678 43.93910217 C-19.10218604 41.44695431 -18.14497518 38.9578473 -17.1875 36.46875 C-16.5593871 34.82376187 -15.93177841 33.17858112 -15.3046875 31.53320312 C-14.08694213 28.34011873 -12.86314396 25.14945706 -11.63476562 21.96044922 C-10.56373339 19.17665117 -9.50883324 16.38800583 -8.47460938 13.59033203 C-8.04470703 12.43774902 -7.61480469 11.28516602 -7.171875 10.09765625 C-6.80803711 9.10838135 -6.44419922 8.11910645 -6.06933594 7.09985352 C-3.344984 0.91717303 -3.344984 0.91717303 0 0 Z " fill="#E8E7EA" transform="translate(295.9375,245.46875)"/>
<path d="M0 0 C1.875 1.0625 1.875 1.0625 3 3 C3.4375 6.5 3.4375 6.5 3 10 C1.375 12 1.375 12 -1 13 C-4.67293796 12.77962372 -6.36966546 12.63033454 -9 10 C-9.55021834 3.94759825 -9.55021834 3.94759825 -7.875 1.0625 C-5.11019567 -0.50422245 -3.11811483 -0.38976435 0 0 Z " fill="#E7E6EA" transform="translate(308,228)"/>
</svg>
